<svg xmlns="http://www.w3.org/2000/svg" xmlns:xlink="http://www.w3.org/1999/xlink" width="156" height="30" viewBox="0 0 156 30"><defs><path d="M71.667 25c-1.223 0-2.139-.282-2.75-.846-.612-.616-.917-1.308-.917-2.077 0-.872.583-1.77 1.75-2.692C70.972 18.46 72.139 18 73.25 18c.722 0 1.361.205 1.917.615.555.36.833.95.833 1.77 0 .461-.195 1.076-.583 1.846-.334.718-.834 1.359-1.5 1.923-.612.564-1.362.846-2.25.846z" id="a"/></defs><g fill="none" fill-rule="evenodd"><path d="M10.5 22.24c.94 0 1.79-.105 2.55-.315.76-.21 1.53-.585 2.31-1.125s1.42-1.3 1.92-2.28c.5-.98.75-1.925.75-2.835 0-.91-.17-1.72-.51-2.43-.34-.71-.745-1.245-1.215-1.605a6.9 6.9 0 0 0-1.425-.855c-.48-.21-.89-.36-1.23-.45-.34-.09-.51-.165-.51-.225 0-.02.1-.1.3-.24 1.8-1.1 2.7-2.51 2.7-4.23 0-1.6-.61-2.835-1.83-3.705C13.09 1.075 11.57.64 9.75.64l-3.3.09-4.38.03L.87.73C.69.73.6.88.6 1.18c0 .24.17.36.51.36 1.16 0 1.94.42 2.34 1.26.2.4.3.76.3 1.08v5.1c0 4.94-.02 7.91-.06 8.91-.04 1-.15 1.73-.33 2.19-.28.7-.63 1.05-1.05 1.05l-.69.03c-.22 0-.33.145-.33.435 0 .29.21.435.63.435h.42l2.58-.12c.14 0 .87.055 2.19.165 1.32.11 2.45.165 3.39.165zm-.45-12.18H8.13c-1.06 0-1.63-.07-1.71-.21-.14-.28-.21-1.68-.21-4.2v-.87c0-1.32.105-2.165.315-2.535.21-.37.625-.555 1.245-.555 1.94 0 3.435.525 4.485 1.575 1.05 1.05 1.575 2.115 1.575 3.195 0 1.08-.315 1.95-.945 2.61-.63.66-1.575.99-2.835.99zm-.39 10.98h-.69c-1.96 0-2.94-.6-2.94-1.8l.03-1.32v-2.639c.007-2.017.047-3.218.12-3.601.08-.34.16-.535.24-.585.08-.05.21-.075.39-.075l.45.03 2.34.03c.76 0 1.58.14 2.46.42.64.2 1.19.48 1.65.84.46.36.87.895 1.23 1.605s.54 1.595.54 2.655c0 1.06-.305 2-.915 2.82-.61.82-1.31 1.295-2.1 1.425-.79.13-1.725.195-2.805.195zm19.11.99l3.3-.15 2.85.12c.5 0 .75-.14.75-.42 0-.16-.07-.275-.21-.345a.932.932 0 0 0-.42-.105l-.6-.03c-.52 0-1.015-.34-1.485-1.02-.47-.68-.705-1.86-.705-3.54l.09-11.1c0-2.04.32-3.19.96-3.45.92-.38 1.38-.65 1.38-.81 0-.28-.27-.42-.81-.42l-2.64.06L27.84.7c-.56 0-.84.145-.84.435 0 .29.23.445.69.465.46.02.925.16 1.395.42s.74.655.81 1.185c.07.53.105 1.235.105 2.115V6.7l-.03 3.24v1.71c0 .94-.045 2.475-.135 4.605-.09 2.13-.17 3.34-.24 3.63-.07.29-.235.55-.495.78-.26.23-.51.355-.75.375-.62.08-.93.26-.93.54 0 .3.45.45 1.35.45zm14.82 5.73c1.68 0 3.135-.735 4.365-2.205 1.23-1.47 1.845-3.345 1.845-5.625l.03-2.31.03-12.21V4.03c0-1.2.21-1.88.63-2.04.92-.38 1.38-.66 1.38-.84 0-.26-.28-.39-.84-.39l-2.37.03h-.06c-.64 0-1.315-.03-2.025-.09S45.41.61 45.21.61c-.58 0-.87.17-.87.51 0 .34.24.52.72.54.48.02.955.15 1.425.39.47.24.74.655.81 1.245.064.543.1 2.05.104 4.523l.001.667c0 2.87.02 4.815.06 5.835 0 .34.005.66.015.96.01.3.015.65.015 1.05l.03.78v3.54c0 .64-.13 1.64-.39 3-.28 1.56-.97 2.34-2.07 2.34-.42 0-.785-.17-1.095-.51-.31-.34-.535-.51-.675-.51s-.325.2-.555.6c-.23.4-.345.75-.345 1.05 0 .76.4 1.14 1.2 1.14zm28.86-5.28c4.76 0 8.15-1.78 10.17-5.34 1.06-1.88 1.59-4.18 1.59-6.9 0-1.56-.47-3.16-1.41-4.8a10.35 10.35 0 0 0-2.01-2.505c-.8-.73-1.89-1.345-3.27-1.845-1.38-.5-2.93-.75-4.65-.75-3.7 0-6.56 1.075-8.58 3.225-2.02 2.15-3.03 4.905-3.03 8.265 0 1.86.405 3.58 1.215 5.16s2.08 2.89 3.81 3.93 3.785 1.56 6.165 1.56zm.96-1.32c-1.3 0-2.495-.255-3.585-.765-1.09-.51-1.99-1.16-2.7-1.95a12.06 12.06 0 0 1-1.815-2.685c-.94-1.86-1.41-3.68-1.41-5.46 0-2.88.775-5.06 2.325-6.54 1.55-1.48 3.425-2.22 5.625-2.22 2.8 0 5.15 1.005 7.05 3.015 1.9 2.01 2.85 4.825 2.85 8.445 0 1.06-.19 2.04-.57 2.94-.66 1.68-1.79 2.99-3.39 3.93-1.44.86-2.9 1.29-4.38 1.29zm32.67 1.41c3.4 0 5.77-.97 7.11-2.91.66-.92 1.15-2.4 1.47-4.44.32-2.04.48-4.98.48-8.82l-.03-2.01c0-.9.11-1.56.33-1.98.1-.2.365-.425.795-.675.43-.25.645-.455.645-.615 0-.26-.21-.39-.63-.39l-2.55.09-2.31-.06c-.4 0-.6.16-.6.48 0 .14.1.225.3.255l.78.12c.32.05.61.165.87.345.26.18.475.51.645.99.17.48.27.92.3 1.32.03.4.045.95.045 1.65l.03 6.36c0 2.28-.31 4.16-.93 5.64a4.419 4.419 0 0 1-1.095 1.575c-.47.43-.885.745-1.245.945-.84.48-2.34.72-4.5.72-1.38 0-2.61-.22-3.69-.66-.46-.2-.865-.48-1.215-.84-.35-.36-.64-.69-.87-.99-.23-.3-.425-.705-.585-1.215-.16-.51-.3-1.065-.42-1.665-.12-.6-.18-1.89-.18-3.87l.03-6.48V4.6c0-1.58.25-2.51.75-2.79.2-.12.405-.19.615-.21.21-.02.385-.05.525-.09.14-.04.21-.15.21-.33 0-.28-.21-.42-.63-.42l-2.82.06L94.32.7c-.22 0-.39.025-.51.075-.12.05-.18.155-.18.315 0 .32.22.51.66.57.96.14 1.57.415 1.83.825s.39 1.165.39 2.265l-.06 4.32v.96c.012 3.262.141 5.577.39 6.945.26 1.43.94 2.655 2.04 3.675 1.4 1.28 3.8 1.92 7.2 1.92zm39.87-.54c.54 0 .85-.07.93-.21.02-.04.03-.11.03-.21 0-.26-.43-.47-1.29-.63-.34-.06-.54-.12-.6-.18-.76-.62-2.06-2.27-3.9-4.95-.86-1.24-1.705-2.45-2.535-3.63-.83-1.18-1.245-1.84-1.245-1.98 0-.04 1.55-2.14 4.65-6.3.68-.92 1.2-1.505 1.56-1.755.36-.25.74-.445 1.14-.585.4-.14.69-.245.87-.315.18-.07.27-.205.27-.405 0-.2-.16-.3-.48-.3-.06 0-.265.02-.615.06-.35.04-1.085.06-2.205.06L140.1.58c-.3 0-.45.1-.45.3 0 .28.27.45.81.51.18.02.355.105.525.255.17.15.255.37.255.66 0 .29-.36.955-1.08 1.995-.32.5-.635.975-.945 1.425-.31.45-.665.96-1.065 1.53-.4.57-.72 1.03-.96 1.38-.24.35-.44.525-.6.525-.06 0-.17-.08-.33-.24-.16-.16-1.05-1.47-2.67-3.93-1.08-1.56-1.62-2.535-1.62-2.925 0-.39.23-.605.69-.645.16 0 .31-.04.45-.12.14-.08.21-.21.21-.39 0-.18-.22-.27-.66-.27l-3.15.06-2.67-.12c-.56 0-.91.025-1.05.075-.14.05-.21.145-.21.285 0 .14.09.28.27.42.18.14.49.21.93.21 1.12.24 2.48 1.54 4.08 3.9.74 1.06 1.66 2.35 2.76 3.87.28.38.53.725.75 1.035.22.31.37.53.45.66.08.13.12.225.12.285 0 .06-.085.21-.255.45-.17.24-.465.635-.885 1.185s-.735.97-.945 1.26c-.21.29-.48.67-.81 1.14-.33.47-.57.81-.72 1.02-.15.21-.375.52-.675.93-.3.41-.55.735-.75.975-.2.24-.425.515-.675.825-.25.31-.49.575-.72.795-.23.22-.52.465-.87.735-.35.27-.775.425-1.275.465-.18 0-.33.025-.45.075-.12.05-.18.155-.18.315s.05.29.15.39c.1.1.34.15.72.15l2.4-.12 2.64.09c.62 0 .93-.11.93-.33 0-.34-.12-.51-.36-.51-1.08 0-1.62-.27-1.62-.81 0-.4.21-.94.63-1.62.42-.68 1.045-1.575 1.875-2.685.83-1.11 1.45-1.995 1.86-2.655.41-.66.635-.99.675-.99.14 0 .4.3.78.9.38.6 1.27 1.9 2.67 3.9 1.16 1.7 1.74 2.74 1.74 3.12 0 .38-.255.63-.765.75s-.765.305-.765.555c0 .25.13.375.39.375.08 0 .36-.03.84-.09s1.22-.09 2.22-.09l3.21.21z" fill="#051F34" fill-rule="nonzero"/><g><use fill="#CBB293" xlink:href="#a"/><use fill="#CB9274" xlink:href="#a"/></g></g></svg>